<svg id="sw-js-blob-svg" viewBox="0 0 100 100" xmlns="http://www.w3.org/2000/svg">
<path  d="M28.4,-31.7C36.1,-27.4,41.2,-17.8,42.4,-8C43.5,1.8,40.6,11.8,35.1,19.1C29.5,26.4,21.2,31,13,32.6C4.8,34.3,-3.3,32.9,-12.2,30.9C-21.1,28.8,-30.6,26,-34.3,19.7C-38.1,13.5,-36,3.8,-32.9,-4.4C-29.8,-12.6,-25.8,-19.3,-20.2,-24C-14.5,-28.6,-7.3,-31.3,1.5,-33.1C10.4,-35,20.7,-36,28.4,-31.7Z" width="100%" height="100%" transform="translate(50 50)" stroke-width="0" style="transition: all 0.3s ease 0s;"></path>              </svg>